<?xml version="1.0" encoding="UTF-8"?>
<svg id="Layer_1" data-name="Layer 1" xmlns="http://www.w3.org/2000/svg" version="1.1" viewBox="0 0 535.62 116.24">
  <defs>
    <style>
      .cls-1 {
        fill: #364ca0;
        stroke-width: 0px;
      }
    </style>
  </defs>
  <g>
    <path class="cls-1" d="M105.54,42.58c-1-1.73-1.76-3.33-2.76-4.76-12.95-18.56-36.09-26.17-58.18-19.18C20.04,26.43,5.99,51.17,12.77,74.69c5.23,18.15,22.23,32.21,40.54,34.23,25.41,2.8,43.59-9.86,51.78-25.09,5.83-10.84,7.3-22.28,3.3-33.88h-53.96v7.85h46.22c3.57,15.67-7.09,34.94-24.11,41.7-19.74,7.85-41.32.06-51.51-18.77-9.4-17.36-3.65-39.9,13.55-51.12,18.11-11.81,42.71-9.24,58.22,13.43,2.26,0,4.58.02,6.9-.01.45,0,.89-.2,1.84-.43ZM88.7,42.79c-6.56-12.29-25.84-17.7-40.6-11.64-16.69,6.85-25.33,24.95-20.03,41.97,5.14,16.52,23.12,27,40.08,23.38,16.42-3.5,28.86-18.26,27.22-32.58h-40.8v8.13h31.5c-2.73,9.98-12.67,17.02-24.02,17.51-11.31.49-21.93-6.68-26.23-17.73-4.05-10.39-.64-22.34,8.62-29.77,8.01-6.44,21.58-9.51,35.19.73h9.08ZM286.77,41.63c-3.3.22-5.88.46-8.48.82-19.87,2.71-32.86,22.73-26.56,40.89,5.69,16.42,25.15,25.72,43.2,20.99,15.05-3.94,26.27-17.16,25.48-32.89-.67-13.34-.18-26.74-.2-40.12,0-4.41,0-8.82,0-13.37h-7.92c0,2.22,0,4.15,0,6.08,0,15.36-.65,30.75.18,46.06.85,15.69-11.51,29.59-30.27,27.99-11.18-.95-21.67-9.63-23.64-20.2-2-10.72,4.15-21.87,15.01-26.3,4.05-1.65,8.46-2.14,13.2-2.48v-7.48ZM434.2,72.19c-.91-4.74-1.4-8.69-3.18-12.22-10.45-20.65-39.9-25.81-57.62-10.27-14.61,12.81-15.23,33-.88,46.1,11.9,10.86,25.97,12.57,40.77,6.87,8.57-3.3,14.96-9.29,18.62-18.3h-8.95c-9.83,12.95-22.85,17.04-36.19,11.45-11.05-4.62-17.28-15.29-15.5-26.57,1.69-10.78,12.38-20.04,24.19-20.85,15.61-1.07,27.99,8.02,30.57,23.79h8.19ZM117.8,49.76c0,12.49-.25,24.49.17,36.47.11,3.07,1.86,6.38,3.64,9.06,7.98,11.98,19.96,13.66,32.98,11.75,11.08-1.63,19.47-7.96,21.23-18.75,2.04-12.51,1.57-25.48,1.78-38.24h-8.98c0,10.93.05,21.47-.02,32.01-.04,7.07-3.28,12.57-9.64,15.54-7.9,3.69-16.43,4.02-23.88-.52-3.69-2.25-7.53-6.91-8.14-10.95-1.42-9.36-.93-19.02-1.18-28.55-.07-2.55-.01-5.11-.01-7.8h-7.95ZM193.85,101.99c0-5.08-.02-9.53,0-13.98.04-6.27-.19-12.56.24-18.81.63-9.19,7.33-15.98,15.99-16.82,17.52-1.7,27.98,5,26.57,23.76-.35,4.6-.06,9.24-.07,13.86,0,3.9,0,7.81,0,11.94h8.8c0-10.29.02-20.5,0-30.7-.02-6.14-1.89-11.67-5.79-16.47-8.49-10.45-19.89-11.62-32.09-9.56-11.82,2-20.8,10.52-21.67,22.03-.87,11.45-.19,23.02-.19,34.74h8.21ZM286.81,54.44c-11.26,0-21.96,7.52-22.46,17.78-.55,11.31,8.09,19.97,20.29,20.35,11.96.37,21.58-8.05,21.65-19.13.08-13.21,0-26.42-.01-39.63,0-5.23,0-10.47,0-15.92h-7.73c0,2,0,3.62,0,5.23-.07,16.84-.06,33.68-.25,50.53-.08,6.89-5.45,12.01-12.41,12.35-6.32.31-12.49-4.3-13.58-10.15-1.18-6.32,2.74-12.02,9.73-14.05,1.55-.45,3.15-.7,4.83-1.07M365.71,98.1c-.78,0-1.44,0-2.1,0-17.72-.03-28.32-10.47-28.33-27.91,0-15.69-.01-31.38-.02-47.07,0-1.75,0-3.49,0-5.21h-7.56c-.12,2.01-.3,3.78-.31,5.55-.06,16.68-.14,33.36-.12,50.04.02,25.18,28.23,36.81,44.59,30.34-2.12-1.98-4.14-3.86-6.15-5.74ZM207.38,102.04c0-.89.02-1.18.02-1.49.03-9.4.02-18.8.05-28.2.02-6.24,2.43-8.97,7.89-9.09,5.87-.13,8.25,2.43,8.28,9.08.05,9.86.01,19.36.01,29.58,3.09,0,5.7,0,8.61-.07,0-10.54.2-20.44-.06-30.33-.2-7.74-5.93-13.53-13.31-14.18-10.04-.88-18.41,2.96-18.99,10.29-.9,11.39-.24,22.91-.24,34.4h7.75ZM130.71,49.83c0,11.3-.01,22.02.03,32.73,0,.8.31,1.61.57,2.39,2.46,7.36,9.83,11.16,19.02,9.83,7.73-1.12,13-6.75,13.21-14.37.14-4.95.04-9.91.04-14.86,0-5.21,0-10.42,0-15.76h-7.9c-.1,2.18-.27,4.11-.28,6.04-.04,8.26,0,16.51-.06,24.77-.03,4.06-1.59,6.95-6.04,7.78-6.8,1.26-10.49-1.65-10.55-8.71-.08-9.85-.02-19.71-.02-29.85h-8.02ZM418.84,72.43c-.41-10.35-7.95-17.63-19.11-18.82-9.91-1.06-20.35,5.97-22.38,15.08-2.05,9.16,3.09,18.26,12.08,21.91,8.68,3.52,22.3.99,24.65-6.2-2.58.21-5.09.45-7.57.62-3.1.22-6.16.33-9.25.15-4.7-.27-8.99-2.35-11.49-6.59-2.37-4.01-2.14-8.23.48-12.16,2.92-4.4,7.38-6,12.39-6.08,4.42-.07,7.39,2.09,9.05,5.52-3.07.23-6.21.14-9.19.37v6.19h20.35ZM361.82,91.96c-2.17-2.91-3.47-5.98-5.8-7.51-4.83-3.17-6.88-7.23-6.86-12.81.08-16.17.01-32.35,0-48.52,0-1.74,0-3.49,0-5.17h-7.84c0,19.4-.41,38.52.17,57.62.29,9.41,9.31,16.34,20.31,16.39Z"/>
    <path class="cls-1" d="M96.79,43.03c-15.51-22.67-40.12-25.24-58.22-13.43-17.2,11.22-22.95,33.76-13.55,51.12,10.2,18.83,31.77,26.62,51.51,18.77,17.01-6.76,27.68-26.03,24.11-41.7h-46.22v-7.85h53.96c4,11.6,2.53,23.03-3.3,33.88-8.19,15.24-26.37,27.9-51.78,25.09-18.31-2.02-35.31-16.08-40.54-34.23-6.78-23.53,7.27-48.26,31.83-56.04,22.08-7,45.23.62,58.18,19.18,1,1.43,2.16,3.41,3.16,5.14"/>
    <path class="cls-1" d="M88.7,42.79h-9.08c-13.61-10.24-27.18-7.17-35.19-.73-9.25,7.43-12.67,19.38-8.62,29.77,4.31,11.05,14.93,18.22,26.23,17.73,11.35-.5,21.3-7.53,24.02-17.51h-31.5v-8.13h40.8c1.64,14.32-10.79,29.08-27.22,32.58-16.97,3.62-34.94-6.86-40.08-23.38-5.3-17.02,3.34-35.12,20.03-41.97,14.76-6.06,34.05-.65,40.6,11.64Z"/>
    <path class="cls-1" d="M273.57,51.58c-10.86,4.43-17.01,15.58-15.01,26.3,1.97,10.57,12.46,19.25,23.64,20.2,18.76,1.6,31.11-12.31,30.27-27.99-.82-15.31-.18-30.7-.18-46.06,0-1.93,0-3.87,0-6.08h7.92c0,4.54,0,8.96,0,13.37.02,13.37-.47,26.77.2,40.12.79,15.73-10.43,28.95-25.48,32.89-18.05,4.73-37.51-4.57-43.2-20.99-6.3-18.16,6.69-38.18,26.56-40.89,2.6-.36,5.23-.51,8.48-.82"/>
    <path class="cls-1" d="M426.01,72.19c-2.58-15.77-14.96-24.86-30.57-23.79-11.81.81-22.49,10.07-24.19,20.85-1.77,11.28,4.45,21.95,15.5,26.57,13.35,5.58,26.36,1.49,36.19-11.45h8.95c-3.66,9.01-10.05,15.01-18.62,18.3-14.8,5.7-28.87,3.99-40.77-6.87-14.35-13.1-13.73-33.29.88-46.1,17.73-15.54,47.17-10.38,57.62,10.27"/>
    <path class="cls-1" d="M117.8,49.76h7.95c0,2.7-.06,5.25.01,7.8.25,9.54-.24,19.19,1.18,28.55.61,4.04,4.45,8.7,8.14,10.95,7.44,4.54,15.98,4.21,23.88.52,6.36-2.97,9.6-8.47,9.64-15.54.07-10.54.02-21.07.02-32.01h8.81c-.56,12.8,1,25.85-1.04,38.36-1.76,10.79-10.72,17-21.8,18.63-13.02,1.92-25,.23-32.98-11.75-1.78-2.68-3.54-5.98-3.64-9.06-.42-11.98-.17-23.98-.17-36.47Z"/>
    <path class="cls-1" d="M193.85,101.99h-8.21c0-11.72-.68-23.29.19-34.74.87-11.5,9.85-20.03,21.67-22.03,12.2-2.06,23.61-.9,32.09,9.56,3.89,4.79,5.77,10.33,5.79,16.47.03,10.21,0,20.41,0,30.7h-8.8c0-4.13,0-8.04,0-11.94,0-4.62-.28-9.27.07-13.86,1.41-18.76-9.05-25.46-26.57-23.76-8.66.84-15.36,7.63-15.99,16.82-.43,6.25-.2,12.54-.24,18.81-.03,4.45,0,8.9,0,13.98Z"/>
    <path class="cls-1" d="M282.03,61.79c-6.99,2.04-10.9,7.73-9.73,14.05,1.09,5.85,7.25,10.46,13.58,10.15,6.96-.34,12.33-5.47,12.41-12.35.19-16.84.18-33.68.25-50.53,0-1.62,0-3.23,0-5.23h7.73c0,5.45,0,10.69,0,15.92,0,13.21.09,26.42.01,39.63-.07,11.08-9.68,19.51-21.65,19.13-12.2-.38-20.84-9.05-20.29-20.35.5-10.26,11.31-17.57,22.45-17.79"/>
    <path class="cls-1" d="M365.71,98.1c2.01,1.88,4.03,3.76,6.15,5.74-16.36,6.46-44.56-5.16-44.59-30.34-.02-16.68.06-33.36.12-50.04,0-1.77.19-3.54.31-5.55h7.56c0,1.72,0,3.47,0,5.21,0,15.69.01,31.38.02,47.07.01,17.44,10.61,27.89,28.33,27.91.66,0,1.32,0,2.1,0Z"/>
    <path class="cls-1" d="M223.61,72.34c-.03-6.66-2.41-9.21-8.28-9.08-5.46.12-7.86,2.85-7.89,9.09-.04,9.4-.02,18.8-.05,28.2,0,.31-.21.61-.53,1.49h-7.23c0-11.5-.66-23.01.24-34.4.58-7.32,8.95-11.17,18.99-10.29,7.38.65,13.11,6.44,13.31,14.18.26,9.89.06,19.78.06,30.33"/>
    <path class="cls-1" d="M130.71,49.83h8.02c0,10.14-.06,20,.02,29.85.06,7.06,3.75,9.97,10.55,8.71,4.45-.82,6.01-3.71,6.04-7.78.05-8.26.02-16.51.06-24.77,0-1.93-.14-3.86-.03-6.04h8.21c0,5.34,0,10.55,0,15.76,0,4.95.1,9.91-.04,14.86-.21,7.62-5.48,13.25-13.21,14.37-9.19,1.33-16.56-2.47-19.02-9.83-.26-.78-.57-2.29-.57-2.39,0-10.71-.03-21.43-.03-32.73Z"/>
    <path class="cls-1" d="M389.42,90.61c-8.98-3.64-14.12-12.74-12.08-21.91,2.04-9.11,12.47-16.14,22.38-15.08,11.16,1.19,18.69,8.46,19.11,18.82h-20.35c0-2.07-.12-4.45-.12-6.81,2.99.08,6.07.17,9.39.17-1.66-3.43-4.72-5.51-9.14-5.43-5.01.08-9.47,1.68-12.39,6.08-2.61,3.93-2.84,8.15-.48,12.16,2.5,4.24,6.43,6.76,11.49,6.59"/>
    <path class="cls-1" d="M361.82,91.96c-11.01-.05-20.03-6.98-20.31-16.39-.58-19.09-.17-38.21-.17-57.62h7.84c0,1.68,0,3.42,0,5.17,0,16.17.07,32.35,0,48.52-.03,5.58,2.02,9.64,6.86,12.81,2.33,1.53,3.63,4.6,5.8,7.51Z"/>
  </g>
  <path class="cls-1" d="M475.77,41.63c-3.25.31-5.88.46-8.48.82-19.87,2.71-32.86,22.73-26.56,40.89,5.69,16.42,25.15,25.72,43.2,20.99,15.05-3.94,26.27-17.16,25.48-32.89-.67-13.34-.18-26.74-.2-40.12,0-4.41,0-8.82,0-13.37h-7.92c0,2.22,0,4.15,0,6.08,0,15.36-.65,30.75.18,46.06.85,15.69-11.51,29.59-30.27,27.99-11.18-.95-21.67-9.63-23.64-20.2-2-10.72,4.15-21.87,15.01-26.3,4.05-1.65,8.55-2.24,13.2-3.4v-6.55Z"/>
  <path class="cls-1" d="M487.55,17.88c0,2,0,3.62,0,5.23-.07,16.84-.06,33.68-.25,50.53-.08,6.89-5.45,12.01-12.41,12.35-6.32.31-12.49-4.3-13.58-10.15-1.18-6.32,2.74-12.02,9.73-14.05,1.55-.45,3.15-.7,4.83-1.07.1-1.05.25-1.86.23-2.66-.02-.94-.18-1.88-.27-2.74-11.3-1.53-21.96,6.63-22.46,16.89-.55,11.31,8.09,19.97,20.29,20.35,11.96.37,21.58-8.05,21.65-19.13.08-13.21,0-26.42-.01-39.63,0-5.23,0-10.47,0-15.92h-7.73Z"/>
  <path class="cls-1" d="M475.77,41.63v6.55c-4.65,1.16-9.15,1.75-13.2,3.4-10.86,4.43-17.01,15.58-15.01,26.3,1.97,10.57,12.46,19.25,23.64,20.2,18.76,1.6,31.11-12.31,30.27-27.99-.82-15.31-.18-30.7-.18-46.06,0-1.93,0-3.87,0-6.08h7.92c0,4.54,0,8.96,0,13.37.02,13.37-.47,26.77.2,40.12.79,15.73-10.43,28.95-25.48,32.89-18.05,4.73-37.51-4.57-43.2-20.99-6.3-18.16,6.69-38.18,26.56-40.89,2.6-.36,5.23-.51,8.48-.82Z"/>
  <path class="cls-1" d="M487.55,17.88h7.73c0,5.45,0,10.69,0,15.92,0,13.21.09,26.42.01,39.63-.07,11.08-9.68,19.51-21.65,19.13-12.2-.38-20.84-9.05-20.29-20.35.5-10.26,11.16-18.42,22.46-16.89.09.86.25,1.8.27,2.74.02.8-.13,1.61-.23,2.66-1.67.36-3.28.62-4.83,1.07-6.99,2.04-10.9,7.73-9.73,14.05,1.09,5.85,7.25,10.46,13.58,10.15,6.96-.34,12.33-5.47,12.41-12.35.19-16.84.18-33.68.25-50.53,0-1.62,0-3.23,0-5.23Z"/>
  <g>
    <path class="cls-1" d="M520.05,30.22c-3.21,0-5.8-2.64-5.78-5.82.03-3.13,2.59-5.72,5.77-5.72,3.19,0,5.79,2.63,5.77,5.81-.02,3.13-2.59,5.73-5.76,5.73ZM513.16,24.45c0,3.79,3.08,6.89,6.86,6.89,3.81,0,6.91-3.07,6.91-6.86,0-3.81-3.08-6.9-6.87-6.9-3.81,0-6.9,3.08-6.9,6.88Z"/>
    <path class="cls-1" d="M523.11,28.65c-.06,0-.09,0-.13,0-.31,0-.63,0-.94,0-.12,0-.19-.05-.24-.14-.09-.16-.17-.31-.26-.47-.45-.83-.89-1.66-1.34-2.49-.08-.15-.2-.22-.37-.22-.56,0-1.13,0-1.69,0q-.11,0-.11.1c0,1.04,0,2.08,0,3.13,0,.06-.02.08-.08.07-.3,0-.6,0-.9,0-.07,0-.09-.02-.09-.09,0-2.15,0-4.31,0-6.46,0-.57,0-1.15,0-1.72,0-.07.02-.1.09-.1.28,0,.57,0,.85,0,.85,0,1.71,0,2.56.01.83.02,1.5.36,1.97,1.05.24.35.36.74.4,1.15.04.37.03.74-.08,1.1-.14.47-.42.84-.8,1.14-.22.18-.46.32-.71.44-.06.03-.06.05-.03.11.41.74.82,1.47,1.23,2.21.2.37.41.73.61,1.1.01.02.02.05.04.09ZM518.04,22.77h0c0,.51,0,1.02,0,1.52,0,.05,0,.08.07.08.55,0,1.1,0,1.66,0,.31,0,.62,0,.92-.07.44-.09.76-.33.93-.76.15-.37.2-.76.12-1.16-.1-.53-.41-.91-.93-1.09-.23-.08-.47-.11-.71-.11-.67-.01-1.33-.01-2-.02-.07,0-.06.04-.06.08,0,.5,0,1.01,0,1.51Z"/>
  </g>
</svg>